<svg width="55" height="55" viewBox="0 0 55 55" fill="none" xmlns="http://www.w3.org/2000/svg"><path d="M49.5752 15.2324C48.8553 13.5654 47.8172 12.0548 46.519 10.7852C45.2199 9.51171 43.6883 8.49971 42.0073 7.80421C40.2643 7.08015 38.3948 6.70953 36.5073 6.71387C33.8594 6.71387 31.2759 7.43897 29.0308 8.8086C28.4937 9.13624 27.9834 9.4961 27.5 9.88819C27.0166 9.4961 26.5063 9.13624 25.9692 8.8086C23.7241 7.43897 21.1406 6.71387 18.4927 6.71387C16.5859 6.71387 14.7383 7.07911 12.9927 7.80421C11.3062 8.50245 9.78613 9.50684 8.48096 10.7852C7.18113 12.0534 6.1428 13.5644 5.4248 15.2324C4.67822 16.9673 4.29688 18.8096 4.29688 20.7056C4.29688 22.4941 4.66211 24.3579 5.38721 26.2539C5.99414 27.8384 6.86426 29.4819 7.97607 31.1416C9.73779 33.7681 12.1602 36.5073 15.168 39.2842C20.1523 43.8872 25.0884 47.0669 25.2979 47.1958L26.5708 48.0122C27.1348 48.3721 27.8599 48.3721 28.4238 48.0122L29.6968 47.1958C29.9063 47.0615 34.8369 43.8872 39.8267 39.2842C42.8345 36.5073 45.2568 33.7681 47.0186 31.1416C48.1304 29.4819 49.0059 27.8384 49.6074 26.2539C50.3325 24.3579 50.6978 22.4941 50.6978 20.7056C50.7031 18.8096 50.3218 16.9673 49.5752 15.2324Z" fill="white"/></svg>
