<svg width="190" height="18" viewBox="0 0 190 18" fill="none" xmlns="http://www.w3.org/2000/svg">
<path d="M14.624 17.44C14.2613 17.44 14.016 17.2693 13.888 16.928C13.6747 16.352 13.4187 15.712 13.12 15.008C12.8213 14.304 12.5013 13.568 12.16 12.8H3.136C2.83734 13.568 2.54934 14.304 2.272 15.008C2.016 15.6907 1.78134 16.32 1.568 16.896C1.504 17.0667 1.39734 17.2053 1.248 17.312C1.09867 17.3973 0.938671 17.44 0.768005 17.44C0.576005 17.44 0.394671 17.3653 0.224005 17.216C0.0746712 17.0453 4.52995e-06 16.8427 4.52995e-06 16.608C4.52995e-06 16.544 0.0106712 16.4587 0.0320046 16.352C0.0746713 16.224 0.170671 15.9787 0.320005 15.616C0.682671 14.656 1.10934 13.5573 1.6 12.32C2.112 11.0827 2.656 9.792 3.232 8.448C3.808 7.104 4.39467 5.74934 4.992 4.384C5.58934 3.01867 6.16534 1.728 6.72001 0.512001C6.86934 0.192001 7.12534 0.0320015 7.488 0.0320015H7.616C8.00001 0.0320015 8.256 0.181335 8.384 0.480001C8.96 1.71733 9.568 3.05067 10.208 4.48C10.8693 5.90933 11.5093 7.328 12.128 8.736C12.7467 10.1227 13.312 11.424 13.824 12.64C14.336 13.8347 14.752 14.8267 15.072 15.616C15.2427 16 15.3387 16.256 15.36 16.384C15.4027 16.512 15.424 16.5973 15.424 16.64C15.424 16.8533 15.3387 17.0453 15.168 17.216C15.0187 17.3653 14.8373 17.44 14.624 17.44ZM11.488 11.2C10.8693 9.77067 10.2187 8.30934 9.53601 6.816C8.85334 5.32267 8.192 3.904 7.552 2.56C6.95467 3.92533 6.32534 5.35467 5.664 6.848C5.024 8.32 4.40534 9.77067 3.808 11.2H11.488ZM20.9625 17.44C20.7492 17.44 20.5572 17.3653 20.3865 17.216C20.2372 17.0453 20.1625 16.8533 20.1625 16.64V1.12C20.1625 0.885335 20.2372 0.693335 20.3865 0.544003C20.5572 0.394669 20.7492 0.320002 20.9625 0.320002H25.5385C26.7972 0.320002 27.8958 0.576001 28.8345 1.088C29.7732 1.57867 30.4985 2.25067 31.0105 3.104C31.5438 3.95734 31.8105 4.93867 31.8105 6.048C31.8105 7.072 31.5758 8.02133 31.1065 8.896C30.6585 9.77067 29.9652 10.4747 29.0265 11.008C28.1092 11.5413 26.9465 11.808 25.5385 11.808H21.7625V16.64C21.7625 16.8533 21.6878 17.0453 21.5385 17.216C21.3892 17.3653 21.1972 17.44 20.9625 17.44ZM21.7625 1.92V10.208H25.5385C27.0532 10.208 28.2052 9.81334 28.9945 9.024C29.8052 8.21334 30.2105 7.22134 30.2105 6.048C30.2105 4.81067 29.7732 3.81867 28.8985 3.072C28.0238 2.304 26.9038 1.92 25.5385 1.92H21.7625ZM37.275 17.44C37.0617 17.44 36.8697 17.3653 36.699 17.216C36.5497 17.0453 36.475 16.8533 36.475 16.64V1.12C36.475 0.885335 36.5497 0.693335 36.699 0.544003C36.8697 0.394669 37.0617 0.320002 37.275 0.320002C37.5097 0.320002 37.7017 0.394669 37.851 0.544003C38.0003 0.693335 38.075 0.885335 38.075 1.12V15.84H45.947C46.1817 15.84 46.3737 15.9147 46.523 16.064C46.6723 16.2133 46.747 16.4053 46.747 16.64C46.747 16.8533 46.6723 17.0453 46.523 17.216C46.3737 17.3653 46.1817 17.44 45.947 17.44H37.275ZM63.5785 17.12C62.8532 16.1387 62.0105 15.04 61.0505 13.824C60.1118 12.608 59.1412 11.3707 58.1385 10.112C57.1358 8.832 56.1652 7.59467 55.2265 6.4C54.3092 5.20533 53.4878 4.14933 52.7625 3.232V16.64C52.7625 16.8533 52.6878 17.0453 52.5385 17.216C52.3892 17.3653 52.1972 17.44 51.9625 17.44C51.7492 17.44 51.5572 17.3653 51.3865 17.216C51.2372 17.0453 51.1625 16.8533 51.1625 16.64V1.12C51.1625 0.885335 51.2372 0.693335 51.3865 0.544003C51.5572 0.394669 51.7385 0.320002 51.9305 0.320002C52.3572 0.320002 52.6452 0.426668 52.7945 0.640001C53.3278 1.344 54.0212 2.25067 54.8745 3.36C55.7278 4.448 56.6558 5.64267 57.6585 6.944C58.6825 8.224 59.7065 9.52534 60.7305 10.848C61.7758 12.1493 62.7358 13.376 63.6105 14.528V1.12C63.6105 0.885335 63.6852 0.693335 63.8345 0.544003C64.0052 0.394669 64.1972 0.320002 64.4105 0.320002C64.6452 0.320002 64.8372 0.394669 64.9865 0.544003C65.1358 0.693335 65.2105 0.885335 65.2105 1.12V16.64C65.2105 16.8533 65.1358 17.0453 64.9865 17.216C64.8372 17.3653 64.6558 17.44 64.4425 17.44C64.0158 17.44 63.7278 17.3333 63.5785 17.12ZM100.406 17.504C100.214 17.504 100.043 17.44 99.8938 17.312C99.7444 17.184 99.6484 17.0133 99.6058 16.8C99.4564 15.584 99.2644 14.208 99.0298 12.672C98.7951 11.136 98.5391 9.54667 98.2618 7.904C97.9844 6.26134 97.6964 4.672 97.3978 3.136C96.6938 4.56533 95.9684 6.05867 95.2218 7.616C94.4964 9.152 93.8031 10.6667 93.1418 12.16C92.4804 13.6533 91.8831 15.0507 91.3498 16.352C91.2004 16.7147 90.9658 16.896 90.6458 16.896C90.2618 16.896 90.0058 16.7467 89.8778 16.448C89.2591 15.1253 88.5764 13.696 87.8298 12.16C87.0831 10.6027 86.3364 9.04534 85.5898 7.488C84.8644 5.93067 84.1818 4.49067 83.5418 3.168C83.3711 4.29867 83.1898 5.49334 82.9978 6.752C82.8271 8.01067 82.6564 9.25867 82.4858 10.496C82.3364 11.7333 82.1871 12.896 82.0378 13.984C81.9098 15.072 81.8031 16.0107 81.7178 16.8C81.6964 16.992 81.6004 17.1627 81.4298 17.312C81.2804 17.44 81.0991 17.504 80.8858 17.504C80.6724 17.504 80.4911 17.4293 80.3418 17.28C80.1924 17.1093 80.1178 16.9067 80.1178 16.672C80.1178 16.6293 80.1498 16.32 80.2138 15.744C80.2991 15.04 80.4164 14.08 80.5658 12.864C80.7151 11.648 80.8858 10.3253 81.0778 8.896C81.2698 7.44534 81.4724 6.00534 81.6858 4.576C81.8991 3.14667 82.1018 1.856 82.2938 0.704002C82.3364 0.512002 82.4324 0.352002 82.5818 0.224001C82.7524 0.0960013 82.9338 0.0320015 83.1258 0.0320015C83.3818 0.0320015 83.5738 0.117335 83.7018 0.288002C83.9151 0.501335 84.0858 0.757335 84.2138 1.056C84.8111 2.25067 85.4618 3.59467 86.1658 5.088C86.8911 6.56 87.6378 8.07467 88.4058 9.632C89.1738 11.1893 89.8991 12.6827 90.5818 14.112C91.2004 12.704 91.8618 11.2107 92.5658 9.632C93.2911 8.032 94.0271 6.44267 94.7738 4.864C95.5418 3.264 96.2884 1.78134 97.0138 0.416002C97.1844 0.138669 97.4298 1.90735e-06 97.7498 1.90735e-06C97.9418 1.90735e-06 98.1231 0.0640017 98.2938 0.192001C98.4644 0.298668 98.5604 0.448001 98.5818 0.640001C98.8378 1.89867 99.0831 3.24267 99.3178 4.672C99.5738 6.08 99.8084 7.43467 100.022 8.736C100.235 10.0373 100.406 11.1787 100.534 12.16C100.683 13.12 100.79 13.7813 100.854 14.144C101.024 15.1893 101.12 15.8613 101.142 16.16C101.184 16.4587 101.206 16.64 101.206 16.704C101.206 16.9173 101.131 17.1093 100.982 17.28C100.832 17.4293 100.64 17.504 100.406 17.504ZM120.28 17.44C119.918 17.44 119.672 17.2693 119.544 16.928C119.331 16.352 119.075 15.712 118.776 15.008C118.478 14.304 118.158 13.568 117.816 12.8H108.792C108.494 13.568 108.206 14.304 107.928 15.008C107.672 15.6907 107.438 16.32 107.224 16.896C107.16 17.0667 107.054 17.2053 106.904 17.312C106.755 17.3973 106.595 17.44 106.424 17.44C106.232 17.44 106.051 17.3653 105.88 17.216C105.731 17.0453 105.656 16.8427 105.656 16.608C105.656 16.544 105.667 16.4587 105.688 16.352C105.731 16.224 105.827 15.9787 105.976 15.616C106.339 14.656 106.766 13.5573 107.256 12.32C107.768 11.0827 108.312 9.792 108.888 8.448C109.464 7.104 110.051 5.74934 110.648 4.384C111.246 3.01867 111.822 1.728 112.376 0.512001C112.526 0.192001 112.782 0.0320015 113.144 0.0320015H113.272C113.656 0.0320015 113.912 0.181335 114.04 0.480001C114.616 1.71733 115.224 3.05067 115.864 4.48C116.526 5.90933 117.166 7.328 117.784 8.736C118.403 10.1227 118.968 11.424 119.48 12.64C119.992 13.8347 120.408 14.8267 120.728 15.616C120.899 16 120.995 16.256 121.016 16.384C121.059 16.512 121.08 16.5973 121.08 16.64C121.08 16.8533 120.995 17.0453 120.824 17.216C120.675 17.3653 120.494 17.44 120.28 17.44ZM117.144 11.2C116.526 9.77067 115.875 8.30934 115.192 6.816C114.51 5.32267 113.848 3.904 113.208 2.56C112.611 3.92533 111.982 5.35467 111.32 6.848C110.68 8.32 110.062 9.77067 109.464 11.2H117.144ZM137.531 17.44C137.296 17.44 137.093 17.344 136.923 17.152L131.707 11.072H127.419V16.64C127.419 16.8533 127.344 17.0453 127.195 17.216C127.045 17.3653 126.853 17.44 126.619 17.44C126.405 17.44 126.213 17.3653 126.043 17.216C125.893 17.0453 125.819 16.8533 125.819 16.64V1.12C125.819 0.885335 125.893 0.693335 126.043 0.544003C126.213 0.394669 126.405 0.320002 126.619 0.320002H131.323C132.581 0.320002 133.659 0.554668 134.555 1.024C135.472 1.49334 136.176 2.13334 136.667 2.944C137.179 3.73334 137.435 4.65067 137.435 5.696C137.435 6.848 137.115 7.89334 136.475 8.832C135.856 9.77067 134.885 10.4213 133.563 10.784L138.139 16.128C138.267 16.256 138.331 16.4267 138.331 16.64C138.331 16.832 138.256 17.0133 138.107 17.184C137.957 17.3547 137.765 17.44 137.531 17.44ZM127.419 1.92V9.472H131.323C132.795 9.472 133.915 9.10934 134.683 8.384C135.451 7.63734 135.835 6.74134 135.835 5.696C135.835 4.56534 135.408 3.65867 134.555 2.976C133.723 2.272 132.645 1.92 131.323 1.92H127.419ZM155.323 17.44C155.089 17.44 154.886 17.344 154.715 17.152C154.31 16.6827 153.809 16.1067 153.211 15.424C152.635 14.72 152.017 13.9733 151.355 13.184C150.715 12.3947 150.075 11.6267 149.435 10.88C148.817 10.112 148.262 9.42934 147.771 8.832C147.131 9.42934 146.545 9.97334 146.011 10.464C145.478 10.9333 145.051 11.3173 144.731 11.616V16.64C144.731 16.8533 144.657 17.0453 144.507 17.216C144.358 17.3653 144.166 17.44 143.931 17.44C143.718 17.44 143.526 17.3653 143.355 17.216C143.206 17.0453 143.131 16.8533 143.131 16.64V1.12C143.131 0.885335 143.206 0.693335 143.355 0.544003C143.526 0.394669 143.718 0.320002 143.931 0.320002C144.166 0.320002 144.358 0.394669 144.507 0.544003C144.657 0.693335 144.731 0.885335 144.731 1.12V9.472C145.329 8.91734 146.022 8.27734 146.811 7.552C147.622 6.80534 148.465 6.02667 149.339 5.216C150.214 4.384 151.067 3.57333 151.899 2.784C152.731 1.97333 153.467 1.23734 154.107 0.576002C154.278 0.405335 154.47 0.320002 154.683 0.320002C154.897 0.320002 155.078 0.405335 155.227 0.576002C155.398 0.725335 155.483 0.906668 155.483 1.12C155.483 1.29067 155.409 1.472 155.259 1.664C154.427 2.53867 153.435 3.53067 152.283 4.64C151.153 5.728 150.043 6.77334 148.955 7.776C149.446 8.352 150.001 9.024 150.619 9.792C151.259 10.56 151.91 11.3387 152.571 12.128C153.233 12.9173 153.851 13.664 154.427 14.368C155.025 15.072 155.526 15.6587 155.931 16.128C156.059 16.256 156.123 16.4267 156.123 16.64C156.123 16.832 156.049 17.0133 155.899 17.184C155.75 17.3547 155.558 17.44 155.323 17.44ZM161.744 17.44C161.53 17.44 161.338 17.3653 161.168 17.216C161.018 17.0453 160.944 16.8533 160.944 16.64V1.12C160.944 0.906668 161.008 0.725335 161.136 0.576002C161.285 0.405335 161.456 0.320002 161.648 0.320002H170.608C170.842 0.320002 171.034 0.394669 171.184 0.544003C171.333 0.693335 171.408 0.885335 171.408 1.12C171.408 1.33334 171.333 1.52534 171.184 1.696C171.034 1.84534 170.842 1.92 170.608 1.92H162.544V7.488H169.232C169.466 7.488 169.658 7.56267 169.808 7.712C169.957 7.86134 170.032 8.05334 170.032 8.288C170.032 8.50134 169.957 8.69334 169.808 8.864C169.658 9.01334 169.466 9.088 169.232 9.088H162.544V15.84H170.672C170.906 15.84 171.098 15.9147 171.248 16.064C171.397 16.2133 171.472 16.4053 171.472 16.64C171.472 16.8533 171.397 17.0453 171.248 17.216C171.098 17.3653 170.906 17.44 170.672 17.44H161.744ZM182.074 17.44C181.86 17.44 181.668 17.3653 181.498 17.216C181.348 17.0453 181.274 16.8533 181.274 16.64V1.92H175.29C175.076 1.92 174.884 1.84534 174.714 1.696C174.564 1.52534 174.49 1.33334 174.49 1.12C174.49 0.885335 174.564 0.693335 174.714 0.544003C174.884 0.394669 175.076 0.320002 175.29 0.320002H188.986C189.22 0.320002 189.412 0.394669 189.562 0.544003C189.711 0.693335 189.786 0.885335 189.786 1.12C189.786 1.33334 189.711 1.52534 189.562 1.696C189.412 1.84534 189.22 1.92 188.986 1.92H182.874V16.64C182.874 16.8533 182.799 17.0453 182.65 17.216C182.5 17.3653 182.308 17.44 182.074 17.44Z" fill="white"/>
</svg>
