<svg width="55" height="55" viewBox="0 0 55 55" fill="none" xmlns="http://www.w3.org/2000/svg">
<path d="M11.1145 18.3333C11.5145 17.6406 12.0887 17.0646 12.7802 16.6626C13.4717 16.2606 14.2564 16.0465 15.0562 16.0417H20.625V11.4583C20.625 10.8506 20.8664 10.2677 21.2962 9.83789C21.7259 9.40811 22.3088 9.16667 22.9166 9.16667H45.8333C47.0489 9.16667 48.2147 9.64956 49.0742 10.5091C49.9337 11.3686 50.4166 12.5344 50.4166 13.75V36.6667C50.4158 37.4704 50.2036 38.2598 49.8014 38.9557C49.3992 39.6515 48.821 40.2294 48.125 40.6313C48.207 42.7585 47.4407 44.8312 45.9945 46.3935C44.5483 47.9557 42.5408 48.8794 40.4135 48.9615C38.2862 49.0435 36.2135 48.2772 34.6513 46.831C33.0891 45.3848 32.1653 43.3773 32.0833 41.25H24.9791C24.7257 43.1674 23.7841 44.9275 22.3297 46.2023C20.8752 47.4772 19.007 48.1801 17.0729 48.1801C15.1388 48.1801 13.2706 47.4772 11.8161 46.2023C10.3616 44.9275 9.42004 43.1674 9.16663 41.25C7.95105 41.25 6.78526 40.7671 5.92572 39.9076C5.06618 39.048 4.58329 37.8822 4.58329 36.6667V29.7917C4.58689 29.3736 4.69733 28.9634 4.90412 28.6L11.1145 18.3333ZM20.625 20.625H15.0562L10.9312 27.5H20.625V20.625ZM40.1041 43.5417C40.784 43.5417 41.4486 43.3401 42.0139 42.9623C42.5792 42.5846 43.0198 42.0478 43.28 41.4196C43.5401 40.7915 43.6082 40.1004 43.4756 39.4336C43.3429 38.7667 43.0155 38.1542 42.5348 37.6735C42.0541 37.1928 41.4416 36.8654 40.7747 36.7327C40.1079 36.6001 39.4168 36.6682 38.7887 36.9283C38.1605 37.1885 37.6237 37.6291 37.2459 38.1944C36.8682 38.7597 36.6666 39.4243 36.6666 40.1042C36.6666 41.0159 37.0288 41.8902 37.6734 42.5349C38.3181 43.1795 39.1924 43.5417 40.1041 43.5417ZM17.1875 43.5417C17.8673 43.5417 18.5319 43.3401 19.0972 42.9623C19.6625 42.5846 20.1031 42.0478 20.3633 41.4196C20.6235 40.7915 20.6915 40.1004 20.5589 39.4336C20.4263 38.7667 20.0989 38.1542 19.6181 37.6735C19.1374 37.1928 18.5249 36.8654 17.8581 36.7327C17.1913 36.6001 16.5001 36.6682 15.872 36.9283C15.2439 37.1885 14.707 37.6291 14.3293 38.1944C13.9516 38.7597 13.75 39.4243 13.75 40.1042C13.75 41.0159 14.1121 41.8902 14.7568 42.5349C15.4014 43.1795 16.2758 43.5417 17.1875 43.5417Z" fill="white"/>
</svg>
