<svg width="590" height="254" viewBox="0 0 590 254" fill="none" xmlns="http://www.w3.org/2000/svg">
<path d="M245.667 138C244.58 138 243.844 137.488 243.46 136.464C242.82 134.736 242.052 132.816 241.156 130.704C240.26 128.592 239.3 126.384 238.276 124.08H211.204C210.308 126.384 209.444 128.592 208.612 130.704C207.844 132.752 207.14 134.64 206.5 136.368C206.308 136.88 205.988 137.296 205.54 137.616C205.092 137.872 204.612 138 204.1 138C203.524 138 202.98 137.776 202.468 137.328C202.02 136.816 201.796 136.208 201.796 135.504C201.796 135.312 201.828 135.056 201.892 134.736C202.02 134.352 202.308 133.616 202.756 132.528C203.844 129.648 205.124 126.352 206.596 122.64C208.132 118.928 209.764 115.056 211.492 111.024C213.22 106.992 214.98 102.928 216.772 98.832C218.564 94.736 220.292 90.864 221.956 87.216C222.404 86.256 223.172 85.776 224.26 85.776H224.644C225.796 85.776 226.564 86.224 226.948 87.12C228.676 90.832 230.5 94.832 232.42 99.12C234.404 103.408 236.324 107.664 238.18 111.888C240.036 116.048 241.732 119.952 243.268 123.6C244.804 127.184 246.052 130.16 247.012 132.528C247.524 133.68 247.812 134.448 247.875 134.832C248.004 135.216 248.068 135.472 248.068 135.6C248.068 136.24 247.812 136.816 247.3 137.328C246.852 137.776 246.308 138 245.667 138ZM236.26 119.28C234.404 114.992 232.452 110.608 230.404 106.128C228.356 101.648 226.372 97.392 224.452 93.36C222.66 97.456 220.772 101.744 218.788 106.224C216.868 110.64 215.012 114.992 213.22 119.28H236.26ZM264.683 138C264.043 138 263.467 137.776 262.955 137.328C262.507 136.816 262.283 136.24 262.283 135.6V89.04C262.283 88.336 262.507 87.76 262.955 87.312C263.467 86.864 264.043 86.64 264.683 86.64H278.411C282.187 86.64 285.483 87.408 288.299 88.944C291.115 90.416 293.291 92.432 294.827 94.992C296.427 97.552 297.227 100.496 297.227 103.824C297.227 106.896 296.523 109.744 295.115 112.368C293.771 114.992 291.691 117.104 288.875 118.704C286.123 120.304 282.635 121.104 278.411 121.104H267.083V135.6C267.083 136.24 266.859 136.816 266.411 137.328C265.963 137.776 265.387 138 264.683 138ZM267.083 91.44V116.304H278.411C282.955 116.304 286.411 115.12 288.779 112.752C291.211 110.32 292.427 107.344 292.427 103.824C292.427 100.112 291.115 97.136 288.491 94.896C285.867 92.592 282.507 91.44 278.411 91.44H267.083ZM313.621 138C312.981 138 312.405 137.776 311.893 137.328C311.445 136.816 311.221 136.24 311.221 135.6V89.04C311.221 88.336 311.445 87.76 311.893 87.312C312.405 86.864 312.981 86.64 313.621 86.64C314.325 86.64 314.901 86.864 315.349 87.312C315.797 87.76 316.021 88.336 316.021 89.04V133.2H339.637C340.341 133.2 340.917 133.424 341.365 133.872C341.813 134.32 342.037 134.896 342.037 135.6C342.037 136.24 341.813 136.816 341.365 137.328C340.917 137.776 340.341 138 339.637 138H313.621ZM392.531 137.04C390.355 134.096 387.827 130.8 384.947 127.152C382.131 123.504 379.219 119.792 376.211 116.016C373.203 112.176 370.291 108.464 367.475 104.88C364.723 101.296 362.259 98.128 360.083 95.376V135.6C360.083 136.24 359.859 136.816 359.411 137.328C358.963 137.776 358.387 138 357.683 138C357.043 138 356.467 137.776 355.955 137.328C355.507 136.816 355.283 136.24 355.283 135.6V89.04C355.283 88.336 355.507 87.76 355.955 87.312C356.467 86.864 357.011 86.64 357.587 86.64C358.867 86.64 359.731 86.96 360.179 87.6C361.779 89.712 363.859 92.432 366.419 95.76C368.979 99.024 371.763 102.608 374.771 106.512C377.843 110.352 380.915 114.256 383.987 118.224C387.123 122.128 390.003 125.808 392.627 129.264V89.04C392.627 88.336 392.851 87.76 393.299 87.312C393.811 86.864 394.387 86.64 395.027 86.64C395.731 86.64 396.307 86.864 396.755 87.312C397.203 87.76 397.427 88.336 397.427 89.04V135.6C397.427 136.24 397.203 136.816 396.755 137.328C396.307 137.776 395.763 138 395.123 138C393.843 138 392.979 137.68 392.531 137.04ZM200.575 230.192C199.999 230.192 199.487 230 199.039 229.616C198.591 229.232 198.303 228.72 198.175 228.08C197.727 224.432 197.151 220.304 196.447 215.696C195.743 211.088 194.975 206.32 194.143 201.392C193.311 196.464 192.447 191.696 191.551 187.088C189.439 191.376 187.263 195.856 185.023 200.528C182.847 205.136 180.767 209.68 178.783 214.16C176.799 218.64 175.007 222.832 173.407 226.736C172.959 227.824 172.255 228.368 171.295 228.368C170.143 228.368 169.375 227.92 168.991 227.024C167.135 223.056 165.087 218.768 162.847 214.16C160.607 209.488 158.367 204.816 156.127 200.144C153.951 195.472 151.903 191.152 149.983 187.184C149.471 190.576 148.927 194.16 148.351 197.936C147.839 201.712 147.327 205.456 146.815 209.168C146.367 212.88 145.919 216.368 145.471 219.632C145.087 222.896 144.767 225.712 144.511 228.08C144.447 228.656 144.159 229.168 143.647 229.616C143.199 230 142.655 230.192 142.015 230.192C141.375 230.192 140.831 229.968 140.383 229.52C139.935 229.008 139.711 228.4 139.711 227.696C139.711 227.568 139.807 226.64 139.999 224.912C140.255 222.8 140.607 219.92 141.055 216.272C141.503 212.624 142.015 208.656 142.591 204.368C143.167 200.016 143.775 195.696 144.415 191.408C145.055 187.12 145.663 183.248 146.239 179.792C146.367 179.216 146.655 178.736 147.103 178.352C147.615 177.968 148.159 177.776 148.735 177.776C149.503 177.776 150.079 178.032 150.463 178.544C151.103 179.184 151.615 179.952 151.999 180.848C153.791 184.432 155.743 188.464 157.855 192.944C160.031 197.36 162.271 201.904 164.575 206.576C166.879 211.248 169.055 215.728 171.103 220.016C172.959 215.792 174.943 211.312 177.055 206.576C179.231 201.776 181.439 197.008 183.679 192.272C185.983 187.472 188.223 183.024 190.399 178.928C190.911 178.096 191.647 177.68 192.607 177.68C193.183 177.68 193.727 177.872 194.239 178.256C194.751 178.576 195.039 179.024 195.103 179.6C195.871 183.376 196.607 187.408 197.311 191.696C198.079 195.92 198.783 199.984 199.423 203.888C200.063 207.792 200.575 211.216 200.959 214.16C201.407 217.04 201.727 219.024 201.919 220.112C202.431 223.248 202.719 225.264 202.783 226.16C202.911 227.056 202.975 227.6 202.975 227.792C202.975 228.432 202.751 229.008 202.303 229.52C201.855 229.968 201.279 230.192 200.575 230.192ZM260.199 230C259.111 230 258.375 229.488 257.991 228.464C257.351 226.736 256.583 224.816 255.687 222.704C254.791 220.592 253.831 218.384 252.807 216.08H225.735C224.839 218.384 223.975 220.592 223.143 222.704C222.375 224.752 221.671 226.64 221.031 228.368C220.839 228.88 220.519 229.296 220.071 229.616C219.623 229.872 219.143 230 218.631 230C218.055 230 217.511 229.776 216.999 229.328C216.551 228.816 216.327 228.208 216.327 227.504C216.327 227.312 216.359 227.056 216.423 226.736C216.551 226.352 216.839 225.616 217.287 224.528C218.375 221.648 219.655 218.352 221.127 214.64C222.663 210.928 224.295 207.056 226.023 203.024C227.751 198.992 229.511 194.928 231.303 190.832C233.095 186.736 234.823 182.864 236.487 179.216C236.935 178.256 237.703 177.776 238.791 177.776H239.175C240.327 177.776 241.095 178.224 241.479 179.12C243.207 182.832 245.031 186.832 246.951 191.12C248.935 195.408 250.855 199.664 252.711 203.888C254.567 208.048 256.263 211.952 257.799 215.6C259.335 219.184 260.583 222.16 261.543 224.528C262.055 225.68 262.343 226.448 262.407 226.832C262.535 227.216 262.599 227.472 262.599 227.6C262.599 228.24 262.343 228.816 261.831 229.328C261.383 229.776 260.839 230 260.199 230ZM250.791 211.28C248.935 206.992 246.983 202.608 244.935 198.128C242.887 193.648 240.903 189.392 238.983 185.36C237.191 189.456 235.303 193.744 233.319 198.224C231.399 202.64 229.543 206.992 227.751 211.28H250.791ZM311.95 230C311.246 230 310.638 229.712 310.126 229.136L294.478 210.896H281.614V227.6C281.614 228.24 281.39 228.816 280.942 229.328C280.494 229.776 279.918 230 279.214 230C278.574 230 277.998 229.776 277.486 229.328C277.038 228.816 276.814 228.24 276.814 227.6V181.04C276.814 180.336 277.038 179.76 277.486 179.312C277.998 178.864 278.574 178.64 279.214 178.64H293.326C297.102 178.64 300.334 179.344 303.022 180.752C305.774 182.16 307.886 184.08 309.358 186.512C310.894 188.88 311.662 191.632 311.662 194.768C311.662 198.224 310.702 201.36 308.782 204.176C306.926 206.992 304.014 208.944 300.046 210.032L313.774 226.064C314.158 226.448 314.35 226.96 314.35 227.6C314.35 228.176 314.126 228.72 313.678 229.232C313.23 229.744 312.654 230 311.95 230ZM281.614 183.44V206.096H293.326C297.742 206.096 301.102 205.008 303.406 202.832C305.71 200.592 306.862 197.904 306.862 194.768C306.862 191.376 305.582 188.656 303.022 186.608C300.526 184.496 297.294 183.44 293.326 183.44H281.614ZM365.328 230C364.624 230 364.016 229.712 363.504 229.136C362.288 227.728 360.784 226 358.992 223.952C357.264 221.84 355.408 219.6 353.424 217.232C351.504 214.864 349.584 212.56 347.664 210.32C345.808 208.016 344.144 205.968 342.672 204.176C340.752 205.968 338.992 207.6 337.392 209.072C335.792 210.48 334.512 211.632 333.552 212.528V227.6C333.552 228.24 333.328 228.816 332.88 229.328C332.432 229.776 331.856 230 331.152 230C330.512 230 329.936 229.776 329.424 229.328C328.976 228.816 328.752 228.24 328.752 227.6V181.04C328.752 180.336 328.976 179.76 329.424 179.312C329.936 178.864 330.512 178.64 331.152 178.64C331.856 178.64 332.432 178.864 332.88 179.312C333.328 179.76 333.552 180.336 333.552 181.04V206.096C335.344 204.432 337.424 202.512 339.792 200.336C342.224 198.096 344.752 195.76 347.376 193.328C350 190.832 352.56 188.4 355.056 186.032C357.552 183.6 359.76 181.392 361.68 179.408C362.192 178.896 362.768 178.64 363.408 178.64C364.048 178.64 364.592 178.896 365.04 179.408C365.552 179.856 365.808 180.4 365.808 181.04C365.808 181.552 365.584 182.096 365.136 182.672C362.64 185.296 359.664 188.272 356.208 191.6C352.816 194.864 349.488 198 346.224 201.008C347.696 202.736 349.36 204.752 351.216 207.056C353.136 209.36 355.088 211.696 357.072 214.064C359.056 216.432 360.912 218.672 362.64 220.784C364.432 222.896 365.936 224.656 367.152 226.064C367.536 226.448 367.728 226.96 367.728 227.6C367.728 228.176 367.504 228.72 367.056 229.232C366.608 229.744 366.032 230 365.328 230ZM384.589 230C383.949 230 383.373 229.776 382.861 229.328C382.413 228.816 382.189 228.24 382.189 227.6V181.04C382.189 180.4 382.381 179.856 382.765 179.408C383.213 178.896 383.725 178.64 384.301 178.64H411.181C411.885 178.64 412.461 178.864 412.909 179.312C413.357 179.76 413.581 180.336 413.581 181.04C413.581 181.68 413.357 182.256 412.909 182.768C412.461 183.216 411.885 183.44 411.181 183.44H386.989V200.144H407.053C407.757 200.144 408.333 200.368 408.781 200.816C409.229 201.264 409.453 201.84 409.453 202.544C409.453 203.184 409.229 203.76 408.781 204.272C408.333 204.72 407.757 204.944 407.053 204.944H386.989V225.2H411.373C412.077 225.2 412.653 225.424 413.101 225.872C413.549 226.32 413.773 226.896 413.773 227.6C413.773 228.24 413.549 228.816 413.101 229.328C412.653 229.776 412.077 230 411.373 230H384.589ZM445.579 230C444.939 230 444.363 229.776 443.851 229.328C443.403 228.816 443.179 228.24 443.179 227.6V183.44H425.227C424.587 183.44 424.011 183.216 423.499 182.768C423.051 182.256 422.827 181.68 422.827 181.04C422.827 180.336 423.051 179.76 423.499 179.312C424.011 178.864 424.587 178.64 425.227 178.64H466.315C467.019 178.64 467.595 178.864 468.042 179.312C468.491 179.76 468.715 180.336 468.715 181.04C468.715 181.68 468.491 182.256 468.042 182.768C467.595 183.216 467.019 183.44 466.315 183.44H447.979V227.6C447.979 228.24 447.755 228.816 447.307 229.328C446.859 229.776 446.283 230 445.579 230Z" fill="white"/>
<path d="M86.0637 34.64V10.484H71.9517L71.6997 18.224C71.6277 20.336 71.4957 22.376 71.3037 24.344C71.1357 26.312 70.8717 28.076 70.5117 29.636C70.1517 31.172 69.6597 32.396 69.0357 33.308C68.4117 34.22 67.6077 34.676 66.6237 34.676L65.6877 34.316C66.7197 34.388 67.5597 34.016 68.2077 33.2C68.8797 32.384 69.4077 31.232 69.7917 29.744C70.1757 28.232 70.4517 26.492 70.6197 24.524C70.7877 22.532 70.9077 20.42 70.9797 18.188L71.2317 9.8H86.7837V34.64H86.0637ZM64.7157 40.94L64.7517 34.316H90.7437V40.94H90.0237V35H65.4717L65.4357 40.94H64.7157ZM107.715 35.108C105.867 35.108 104.151 34.796 102.567 34.172C101.007 33.524 99.6386 32.624 98.4626 31.472C97.3106 30.32 96.4106 28.976 95.7626 27.44C95.1146 25.904 94.7906 24.224 94.7906 22.4C94.7906 20.576 95.1146 18.896 95.7626 17.36C96.4106 15.824 97.3106 14.48 98.4626 13.328C99.6386 12.176 101.007 11.288 102.567 10.664C104.151 10.016 105.867 9.692 107.715 9.692C109.563 9.692 111.267 10.016 112.827 10.664C114.411 11.288 115.779 12.176 116.931 13.328C118.107 14.48 119.019 15.824 119.667 17.36C120.315 18.896 120.639 20.576 120.639 22.4C120.639 24.224 120.315 25.904 119.667 27.44C119.019 28.976 118.107 30.32 116.931 31.472C115.779 32.624 114.411 33.524 112.827 34.172C111.267 34.796 109.563 35.108 107.715 35.108ZM107.715 34.424C109.443 34.424 111.051 34.124 112.539 33.524C114.027 32.924 115.323 32.084 116.427 31.004C117.531 29.9 118.383 28.628 118.983 27.188C119.607 25.724 119.919 24.128 119.919 22.4C119.919 20.672 119.607 19.088 118.983 17.648C118.383 16.184 117.531 14.912 116.427 13.832C115.323 12.728 114.027 11.876 112.539 11.276C111.051 10.676 109.443 10.376 107.715 10.376C105.987 10.376 104.379 10.676 102.891 11.276C101.403 11.876 100.107 12.728 99.0026 13.832C97.8986 14.912 97.0346 16.184 96.4106 17.648C95.8106 19.088 95.5106 20.672 95.5106 22.4C95.5106 24.128 95.8106 25.724 96.4106 27.188C97.0346 28.628 97.8986 29.9 99.0026 31.004C100.107 32.084 101.403 32.924 102.891 33.524C104.379 34.124 105.987 34.424 107.715 34.424ZM128.106 35V9.8H145.422V10.484H128.826V20.744H137.79C140.718 20.744 142.938 21.344 144.45 22.544C145.986 23.72 146.754 25.46 146.754 27.764C146.754 30.14 145.962 31.94 144.378 33.164C142.794 34.388 140.466 35 137.394 35H128.106ZM128.826 34.316H137.538C140.346 34.316 142.458 33.776 143.874 32.696C145.314 31.592 146.034 29.96 146.034 27.8C146.034 23.552 143.202 21.428 137.538 21.428H128.826V34.316ZM153.946 35V9.8H162.478C164.542 9.8 166.306 10.136 167.77 10.808C169.258 11.456 170.398 12.392 171.19 13.616C171.982 14.84 172.378 16.328 172.378 18.08C172.378 19.808 171.982 21.296 171.19 22.544C170.398 23.768 169.258 24.716 167.77 25.388C166.306 26.036 164.542 26.36 162.478 26.36H154.342L154.666 26.036V35H153.946ZM154.666 25.964L154.342 25.676H162.55C165.502 25.676 167.758 25.016 169.318 23.696C170.878 22.352 171.658 20.48 171.658 18.08C171.658 15.656 170.878 13.784 169.318 12.464C167.758 11.144 165.502 10.484 162.55 10.484H154.342L154.666 10.196V25.964ZM189.664 35.108C187.816 35.108 186.1 34.796 184.516 34.172C182.956 33.524 181.588 32.624 180.412 31.472C179.26 30.32 178.36 28.976 177.712 27.44C177.064 25.904 176.74 24.224 176.74 22.4C176.74 20.576 177.064 18.896 177.712 17.36C178.36 15.824 179.26 14.48 180.412 13.328C181.588 12.176 182.956 11.288 184.516 10.664C186.1 10.016 187.816 9.692 189.664 9.692C191.512 9.692 193.216 10.016 194.776 10.664C196.36 11.288 197.728 12.176 198.88 13.328C200.056 14.48 200.968 15.824 201.616 17.36C202.264 18.896 202.588 20.576 202.588 22.4C202.588 24.224 202.264 25.904 201.616 27.44C200.968 28.976 200.056 30.32 198.88 31.472C197.728 32.624 196.36 33.524 194.776 34.172C193.216 34.796 191.512 35.108 189.664 35.108ZM189.664 34.424C191.392 34.424 193 34.124 194.488 33.524C195.976 32.924 197.272 32.084 198.376 31.004C199.48 29.9 200.332 28.628 200.932 27.188C201.556 25.724 201.868 24.128 201.868 22.4C201.868 20.672 201.556 19.088 200.932 17.648C200.332 16.184 199.48 14.912 198.376 13.832C197.272 12.728 195.976 11.876 194.488 11.276C193 10.676 191.392 10.376 189.664 10.376C187.936 10.376 186.328 10.676 184.84 11.276C183.352 11.876 182.056 12.728 180.952 13.832C179.848 14.912 178.984 16.184 178.36 17.648C177.76 19.088 177.46 20.672 177.46 22.4C177.46 24.128 177.76 25.724 178.36 27.188C178.984 28.628 179.848 29.9 180.952 31.004C182.056 32.084 183.352 32.924 184.84 33.524C186.328 34.124 187.936 34.424 189.664 34.424ZM219.055 35V9.8H239.179V35H238.459V10.16L238.783 10.484H219.451L219.775 10.16V35H219.055ZM259.519 35.108C257.671 35.108 255.955 34.796 254.371 34.172C252.811 33.524 251.443 32.624 250.267 31.472C249.115 30.32 248.215 28.976 247.567 27.44C246.919 25.904 246.595 24.224 246.595 22.4C246.595 20.576 246.919 18.896 247.567 17.36C248.215 15.824 249.115 14.48 250.267 13.328C251.443 12.176 252.811 11.288 254.371 10.664C255.955 10.016 257.671 9.692 259.519 9.692C261.367 9.692 263.071 10.016 264.631 10.664C266.215 11.288 267.583 12.176 268.735 13.328C269.911 14.48 270.823 15.824 271.471 17.36C272.119 18.896 272.443 20.576 272.443 22.4C272.443 24.224 272.119 25.904 271.471 27.44C270.823 28.976 269.911 30.32 268.735 31.472C267.583 32.624 266.215 33.524 264.631 34.172C263.071 34.796 261.367 35.108 259.519 35.108ZM259.519 34.424C261.247 34.424 262.855 34.124 264.343 33.524C265.831 32.924 267.127 32.084 268.231 31.004C269.335 29.9 270.187 28.628 270.787 27.188C271.411 25.724 271.723 24.128 271.723 22.4C271.723 20.672 271.411 19.088 270.787 17.648C270.187 16.184 269.335 14.912 268.231 13.832C267.127 12.728 265.831 11.876 264.343 11.276C262.855 10.676 261.247 10.376 259.519 10.376C257.791 10.376 256.183 10.676 254.695 11.276C253.207 11.876 251.911 12.728 250.807 13.832C249.703 14.912 248.839 16.184 248.215 17.648C247.615 19.088 247.315 20.672 247.315 22.4C247.315 24.128 247.615 25.724 248.215 27.188C248.839 28.628 249.703 29.9 250.807 31.004C251.911 32.084 253.207 32.924 254.695 33.524C256.183 34.124 257.791 34.424 259.519 34.424ZM307.076 35L297.68 22.148L298.328 21.86L307.976 35H307.076ZM291.668 22.508V21.824H298.472V22.508H291.668ZM298.328 22.436L297.68 22.148L306.32 9.8H307.22L298.328 22.436ZM276.116 35H275.216L284.864 21.86L285.512 22.148L276.116 35ZM291.956 35H291.236V9.8H291.956V35ZM291.524 22.508H284.72V21.824H291.524V22.508ZM284.864 22.436L275.972 9.8H276.872L285.512 22.148L284.864 22.436ZM308.853 35L320.553 9.8H321.273L332.973 35H332.145L320.733 10.376H321.093L309.681 35H308.853ZM312.705 27.404L313.065 26.72H328.725L329.085 27.404H312.705ZM335.523 35.108C335.283 35.108 335.043 35.096 334.803 35.072C334.587 35.048 334.335 35 334.047 34.928L334.191 34.244C334.647 34.34 335.067 34.388 335.451 34.388C336.579 34.388 337.503 33.956 338.223 33.092C338.943 32.204 339.495 30.776 339.879 28.808C340.287 26.84 340.551 24.224 340.671 20.96L341.067 9.8H356.763V35H356.043V10.16L356.367 10.484H341.463L341.787 10.16L341.391 20.996C341.295 23.54 341.115 25.712 340.851 27.512C340.587 29.288 340.215 30.74 339.735 31.868C339.255 32.972 338.667 33.788 337.971 34.316C337.275 34.844 336.459 35.108 335.523 35.108ZM377.117 35.108C375.269 35.108 373.553 34.796 371.969 34.172C370.409 33.524 369.041 32.624 367.865 31.472C366.713 30.32 365.813 28.976 365.165 27.44C364.517 25.904 364.193 24.224 364.193 22.4C364.193 20.576 364.517 18.896 365.165 17.36C365.813 15.824 366.713 14.48 367.865 13.328C369.041 12.176 370.409 11.288 371.969 10.664C373.553 10.016 375.269 9.692 377.117 9.692C378.965 9.692 380.669 10.016 382.229 10.664C383.813 11.288 385.181 12.176 386.333 13.328C387.509 14.48 388.421 15.824 389.069 17.36C389.717 18.896 390.041 20.576 390.041 22.4C390.041 24.224 389.717 25.904 389.069 27.44C388.421 28.976 387.509 30.32 386.333 31.472C385.181 32.624 383.813 33.524 382.229 34.172C380.669 34.796 378.965 35.108 377.117 35.108ZM377.117 34.424C378.845 34.424 380.453 34.124 381.941 33.524C383.429 32.924 384.725 32.084 385.829 31.004C386.933 29.9 387.785 28.628 388.385 27.188C389.009 25.724 389.321 24.128 389.321 22.4C389.321 20.672 389.009 19.088 388.385 17.648C387.785 16.184 386.933 14.912 385.829 13.832C384.725 12.728 383.429 11.876 381.941 11.276C380.453 10.676 378.845 10.376 377.117 10.376C375.389 10.376 373.781 10.676 372.293 11.276C370.805 11.876 369.509 12.728 368.405 13.832C367.301 14.912 366.437 16.184 365.813 17.648C365.213 19.088 364.913 20.672 364.913 22.4C364.913 24.128 365.213 25.724 365.813 27.188C366.437 28.628 367.301 29.9 368.405 31.004C369.509 32.084 370.805 32.924 372.293 33.524C373.781 34.124 375.389 34.424 377.117 34.424ZM397.508 35V9.8H407.192C409.688 9.8 411.668 10.34 413.132 11.42C414.62 12.476 415.364 14.06 415.364 16.172C415.364 18.284 414.644 19.856 413.204 20.888C411.788 21.896 409.94 22.4 407.66 22.4L408.272 21.932C411.056 21.932 413.156 22.484 414.572 23.588C415.988 24.668 416.696 26.276 416.696 28.412C416.696 30.524 415.964 32.156 414.5 33.308C413.06 34.436 410.852 35 407.876 35H397.508ZM398.228 34.316H408.02C410.612 34.316 412.58 33.848 413.924 32.912C415.292 31.952 415.976 30.452 415.976 28.412C415.976 26.372 415.292 24.884 413.924 23.948C412.58 23.012 410.612 22.544 408.02 22.544H398.228V34.316ZM398.228 21.86H407.3C409.628 21.86 411.428 21.38 412.7 20.42C413.996 19.46 414.644 18.044 414.644 16.172C414.644 14.3 413.996 12.884 412.7 11.924C411.428 10.964 409.628 10.484 407.3 10.484H398.228V21.86ZM420.474 35L432.174 9.8H432.894L444.594 35H443.766L432.354 10.376H432.714L421.302 35H420.474ZM424.326 27.404L424.686 26.72H440.346L440.706 27.404H424.326ZM453.798 35V10.16L454.122 10.484H444.438V9.8H463.878V10.484H454.194L454.518 10.16V35H453.798ZM478.626 19.304C481.554 19.304 483.774 19.964 485.286 21.284C486.822 22.58 487.59 24.5 487.59 27.044C487.59 29.66 486.798 31.64 485.214 32.984C483.63 34.328 481.302 35 478.23 35H469.086V9.8H469.806V19.304H478.626ZM478.374 34.316C481.182 34.316 483.294 33.716 484.71 32.516C486.15 31.292 486.87 29.48 486.87 27.08C486.87 24.704 486.162 22.928 484.746 21.752C483.354 20.576 481.23 19.988 478.374 19.988H469.806V34.316H478.374ZM503.434 35V9.8H513.118C515.614 9.8 517.594 10.34 519.058 11.42C520.546 12.476 521.29 14.06 521.29 16.172C521.29 18.284 520.57 19.856 519.13 20.888C517.714 21.896 515.866 22.4 513.586 22.4L514.198 21.932C516.982 21.932 519.082 22.484 520.498 23.588C521.914 24.668 522.622 26.276 522.622 28.412C522.622 30.524 521.89 32.156 520.426 33.308C518.986 34.436 516.778 35 513.802 35H503.434ZM504.154 34.316H513.946C516.538 34.316 518.506 33.848 519.85 32.912C521.218 31.952 521.902 30.452 521.902 28.412C521.902 26.372 521.218 24.884 519.85 23.948C518.506 23.012 516.538 22.544 513.946 22.544H504.154V34.316ZM504.154 21.86H513.226C515.554 21.86 517.354 21.38 518.626 20.42C519.922 19.46 520.57 18.044 520.57 16.172C520.57 14.3 519.922 12.884 518.626 11.924C517.354 10.964 515.554 10.484 513.226 10.484H504.154V21.86Z" fill="white"/>
</svg>
