<svg width="79" height="84" viewBox="0 0 79 84" fill="none" xmlns="http://www.w3.org/2000/svg">
<path d="M29.6577 30.0719C29.5217 30.0721 29.4296 30.0082 29.3814 29.8802C29.3012 29.6643 29.2049 29.4245 29.0926 29.1606C28.9803 28.8967 28.8599 28.6209 28.7316 28.333L25.3476 28.3371C25.2359 28.6252 25.1283 28.9013 25.0246 29.1655C24.9289 29.4216 24.8412 29.6577 24.7614 29.8738C24.7375 29.9378 24.6976 29.9899 24.6416 30.0299C24.5857 30.062 24.5257 30.0781 24.4617 30.0781C24.3897 30.0782 24.3216 30.0503 24.2576 29.9944C24.2015 29.9304 24.1734 29.8545 24.1733 29.7665C24.1733 29.7425 24.1772 29.7105 24.1852 29.6705C24.2011 29.6224 24.237 29.5304 24.2929 29.3943C24.4284 29.0342 24.5879 28.622 24.7714 28.1578C24.9628 27.6935 25.1662 27.2093 25.3816 26.705C25.597 26.2008 25.8164 25.6925 26.0398 25.1802C26.2632 24.668 26.4786 24.1837 26.6861 23.7275C26.7419 23.6074 26.8379 23.5473 26.9739 23.5471L27.0219 23.5471C27.1659 23.5469 27.2619 23.6028 27.3101 23.7147C27.5266 24.1785 27.7552 24.6782 27.9959 25.2139C28.2445 25.7496 28.4851 26.2813 28.7178 26.809C28.9504 27.3288 29.163 27.8165 29.3555 28.2723C29.5481 28.72 29.7045 29.0919 29.8249 29.3877C29.889 29.5316 29.9251 29.6276 29.9332 29.6756C29.9493 29.7236 29.9573 29.7556 29.9573 29.7716C29.9574 29.8516 29.9255 29.9236 29.8616 29.9877C29.8056 30.0437 29.7377 30.0718 29.6577 30.0719ZM28.4789 27.7333C28.2462 27.1976 28.0016 26.6499 27.7449 26.0902C27.4882 25.5305 27.2396 24.9988 26.999 24.4951C26.7756 25.0074 26.5403 25.5436 26.2929 26.1039C26.0536 26.6562 25.8222 27.2005 25.5989 27.7368L28.4789 27.7333Z" fill="white"/>
<path d="M25.0074 38.0694C24.9274 38.0696 24.8553 38.0417 24.7912 37.9858C24.7351 37.9219 24.707 37.85 24.7068 37.77L24.6959 31.95C24.6957 31.862 24.7236 31.7899 24.7795 31.7338C24.8434 31.6777 24.9153 31.6496 24.9953 31.6494L26.7113 31.6462C27.1833 31.6453 27.5955 31.7405 27.9479 31.9319C28.3002 32.1152 28.5727 32.3667 28.7653 32.6863C28.9659 33.006 29.0666 33.3738 29.0674 33.7898C29.0681 34.1738 28.9808 34.5299 28.8054 34.8583C28.638 35.1866 28.3785 35.4511 28.0269 35.6517C27.6832 35.8524 27.2474 35.9532 26.7194 35.9542L25.3034 35.9568L25.3068 37.7688C25.307 37.8488 25.2791 37.9209 25.2232 37.985C25.1673 38.0411 25.0954 38.0692 25.0074 38.0694ZM25.2965 32.2488L25.3023 35.3568L26.7183 35.3542C27.2863 35.3531 27.718 35.2043 28.0135 34.9078C28.3169 34.6032 28.4682 34.2309 28.4674 33.7909C28.4665 33.3269 28.3018 32.9552 27.9733 32.6758C27.6447 32.3884 27.2245 32.2452 26.7125 32.2462L25.2965 32.2488Z" fill="white"/>
<path d="M25.3271 46.0688C25.2471 46.069 25.1751 46.0411 25.111 45.9852C25.0548 45.9213 25.0267 45.8494 25.0266 45.7694L25.0156 39.9494C25.0155 39.8614 25.0433 39.7893 25.0992 39.7332C25.1631 39.6771 25.2351 39.649 25.3151 39.6488C25.4031 39.6487 25.4751 39.6765 25.5312 39.7324C25.5873 39.7883 25.6155 39.8603 25.6156 39.9483L25.626 45.4683L28.578 45.4627C28.666 45.4626 28.738 45.4904 28.7941 45.5463C28.8502 45.6022 28.8784 45.6742 28.8785 45.7622C28.8787 45.8422 28.8508 45.9142 28.795 45.9783C28.7391 46.0344 28.6671 46.0626 28.5791 46.0627L25.3271 46.0688Z" fill="white"/>
<path d="M29.6432 53.9407C29.3705 53.5732 29.0537 53.1618 28.6929 52.7065C28.34 52.2512 27.9752 51.7878 27.5983 51.3165C27.2214 50.8373 26.8565 50.3739 26.5037 49.9266C26.1588 49.4792 25.8501 49.0838 25.5774 48.7403L25.5869 53.7683C25.587 53.8483 25.5591 53.9204 25.5033 53.9845C25.4474 54.0406 25.3754 54.0687 25.2874 54.0689C25.2074 54.069 25.1354 54.0412 25.0713 53.9853C25.0151 53.9214 24.987 53.8494 24.9869 53.7694L24.9759 47.9495C24.9758 47.8615 25.0036 47.7894 25.0595 47.7333C25.1234 47.6772 25.1914 47.6491 25.2634 47.6489C25.4234 47.6486 25.5315 47.6884 25.5876 47.7683C25.7881 48.0319 26.0487 48.3714 26.3695 48.7868C26.6903 49.1942 27.0391 49.6416 27.416 50.1289C27.8009 50.6082 28.1859 51.0954 28.5708 51.5907C28.9637 52.078 29.3246 52.5373 29.6534 52.9687L29.6439 47.9407C29.6438 47.8527 29.6716 47.7806 29.7275 47.7245C29.7914 47.6684 29.8634 47.6403 29.9434 47.6401C30.0314 47.64 30.1034 47.6678 30.1595 47.7237C30.2156 47.7796 30.2438 47.8516 30.2439 47.9396L30.2549 53.7596C30.255 53.8396 30.2271 53.9116 30.1713 53.9757C30.1154 54.0318 30.0474 54.06 29.9674 54.0601C29.8074 54.0604 29.6993 54.0206 29.6432 53.9407Z" fill="white"/>
<path d="M64.7163 18.5002C69.9833 23.7474 73.5473 30.4596 74.9439 37.7619C76.3404 45.0642 75.5048 52.6179 72.5458 59.4383C69.5868 66.2587 64.6417 72.0295 58.3552 75.9985C52.0686 79.9676 44.7322 81.9507 37.3022 81.6894C29.8721 81.4281 22.6931 78.9345 16.7009 74.5337C10.7087 70.1329 6.18126 64.0289 3.70869 57.0175C1.23612 50.0061 0.933124 42.4124 2.8392 35.2262C4.74528 28.0401 8.77202 21.5948 14.3945 16.7306" stroke="white"/>
<path d="M3.73998 56.1148C3.73998 56.1148 19.4376 56.0854 32.5189 56.0609C35.1369 56.928 36.0124 58.6705 36.8893 61.2852C36.9024 68.2619 36.9282 82.0471 36.9282 82.0471" stroke="white"/>
<path d="M4.61891 59.6017C4.61891 59.6017 10.7236 59.5902 20.3166 59.5722C22.9344 60.4394 24.6819 62.1804 24.6852 63.9246C24.6951 69.1571 24.7131 78.75 24.7131 78.75" stroke="white"/>
<line x1="21.1117" y1="52.6721" x2="21.0528" y2="21.2768" stroke="white"/>
<line x1="20.8095" y1="21.7922" x2="58.1794" y2="21.7221" stroke="white"/>
<path d="M57.2122 37.7066C57.2127 37.9828 57.437 38.2062 57.7131 38.2057C57.9893 38.2052 58.2127 37.9809 58.2122 37.7047L57.7122 37.7057L57.2122 37.7066ZM57.7122 37.7057L58.2122 37.7047L58.1821 22.0071L57.6821 22.008L57.1821 22.009L57.2122 37.7066L57.7122 37.7057Z" fill="white"/>
<path d="M41.6599 81.5382L41.6088 54.2923" stroke="white"/>
<path d="M41.1212 54.6726L74.3827 54.6102" stroke="white"/>
<path d="M70.0204 64.333C69.9102 64.5226 69.7449 64.8 69.528 65.145C69.0941 65.8352 68.4528 66.7968 67.6266 67.8792C65.9702 70.0492 63.5867 72.6816 60.6549 74.5891C57.692 76.5168 54.6591 77.9217 52.364 78.8451C51.2176 79.3062 50.2576 79.6466 49.5853 79.8711C49.2995 79.9666 49.0653 80.0402 48.8916 80.0941C45.0347 73.8102 46.5348 65.2957 52.1696 61.6296C57.9204 57.8881 65.9385 58.3293 70.0361 64.3053C70.0309 64.3143 70.0258 64.3236 70.0204 64.333Z" stroke="white"/>
<path d="M67.2296 67.202C66.8949 67.7393 66.3991 68.4883 65.7604 69.3311C64.4793 71.0215 62.6372 73.0663 60.3703 74.5412C58.0719 76.0367 55.7153 77.1237 53.9307 77.8374C53.0396 78.1937 52.2935 78.4567 51.7712 78.6296C51.5919 78.6889 51.4381 78.7353 51.315 78.7737C48.355 73.8742 49.5047 67.3211 53.8089 64.5207C58.2279 61.6459 64.3883 62.0132 67.5843 66.61C67.5002 66.7552 67.3823 66.9567 67.2296 67.202Z" stroke="white"/>
<path d="M41.2512 50.6342C41.2512 50.6342 41.2423 46.2738 41.2365 42.7854C41.232 40.1694 43.8464 39.3207 45.5918 39.3174C56.057 39.2977 75.0924 39.262 75.0924 39.262" stroke="white"/>
<path d="M40.7645 51.1119L75.0645 51.0476" stroke="white"/>
<path d="M20.6764 19.0191C20.6764 19.0191 20.6618 11.1702 20.6535 6.80984C20.6457 2.71098 23.1993 1.57253 25.7545 1.5677C30.8654 1.55806 38.5316 1.54373 38.5316 1.54373C38.5316 1.54373 46.1981 1.52931 52.1606 1.51815C54.7162 1.51337 57.2763 4.12475 57.2812 6.7411C57.2894 11.1015 57.3042 18.9504 57.3042 18.9504" stroke="white"/>
<line x1="20.2393" y1="18.5199" x2="56.8671" y2="18.4512" stroke="white"/>
<circle cx="31.4596" cy="72.4147" r="2.4593" transform="rotate(-0.107523 31.4596 72.4147)" stroke="white" stroke-width="0.75"/>
<circle cx="64.3316" cy="45.9721" r="2.24128" transform="rotate(-0.107523 64.3316 45.9721)" stroke="white" stroke-width="0.75"/>
<circle cx="70.4364" cy="45.9606" r="2.24128" transform="rotate(-0.107523 70.4364 45.9606)" stroke="white" stroke-width="0.75"/>
<path d="M31.4461 65.0836C32.3701 65.0819 33.125 65.0854 33.6555 65.2797C33.9081 65.3723 34.0898 65.5018 34.2119 65.682C34.3352 65.864 34.4178 66.1277 34.4185 66.5224C34.4193 66.9172 34.3377 67.1811 34.215 67.3636C34.0936 67.5444 33.9126 67.6754 33.6601 67.7689C33.1304 67.9652 32.3755 67.9706 31.4515 67.9723C30.5275 67.974 29.7727 67.9715 29.2422 67.7772C28.9894 67.6846 28.808 67.5543 28.6858 67.374C28.5624 67.1919 28.4789 66.9283 28.4781 66.5336C28.4774 66.1388 28.5599 65.8749 28.6826 65.6923C28.8041 65.5117 28.9852 65.3815 29.2375 65.288C29.7673 65.0917 30.522 65.0854 31.4461 65.0836Z" stroke="white" stroke-width="0.6"/>
<path d="M31.4362 59.8511C32.3602 59.8494 33.1151 59.8529 33.6456 60.0472C33.8982 60.1398 34.0799 60.2692 34.202 60.4494C34.3253 60.6315 34.4079 60.8951 34.4087 61.2899C34.4094 61.6846 34.3278 61.9485 34.2052 62.1311C34.0837 62.3118 33.9027 62.4428 33.6503 62.5364C33.1205 62.7327 32.3657 62.738 31.4416 62.7398C30.5176 62.7415 29.7628 62.739 29.2323 62.5447C28.9795 62.4521 28.7981 62.3217 28.6759 62.1414C28.5525 61.9594 28.469 61.6958 28.4682 61.301C28.4675 60.9063 28.5501 60.6423 28.6727 60.4598C28.7942 60.2792 28.9753 60.149 29.2276 60.0554C29.7574 59.8591 30.5121 59.8528 31.4362 59.8511Z" stroke="white" stroke-width="0.6"/>
<path d="M48.4671 29.6934C48.4643 28.1825 48.4654 26.8836 48.7472 25.9576C48.8856 25.5031 49.0843 25.167 49.3596 24.9427C49.6315 24.7214 50.0093 24.5841 50.5562 24.5831C51.1031 24.5821 51.4814 24.7179 51.7541 24.9382C52.0303 25.1615 52.2303 25.4968 52.3703 25.9508C52.6556 26.8757 52.6606 28.1746 52.6634 29.6856C52.6663 31.1965 52.666 32.4954 52.3843 33.4215C52.246 33.8759 52.0473 34.212 51.772 34.4363C51.5001 34.6577 51.1224 34.7959 50.5754 34.7969C50.0283 34.7979 49.6502 34.6612 49.3774 34.4408C49.1012 34.2175 48.9013 33.8823 48.7613 33.4283C48.476 32.5032 48.47 31.2044 48.4671 29.6934Z" stroke="white" stroke-width="0.6"/>
<path d="M48.4286 9.15579C48.4275 8.58109 48.4272 8.04804 48.4628 7.56588C48.4983 7.0832 48.5689 6.67171 48.7017 6.33789C48.8322 6.00963 49.0202 5.76241 49.2921 5.59264C49.5677 5.42061 49.9576 5.31014 50.52 5.30908C51.0823 5.30805 51.4719 5.41709 51.7481 5.58803C52.0208 5.75679 52.2095 6.00315 52.3413 6.33106C52.4753 6.66443 52.5484 7.07548 52.5858 7.55814C52.6231 8.04016 52.6238 8.57321 52.6249 9.14791C52.626 9.72262 52.6273 10.2556 52.5918 10.7378C52.5562 11.2207 52.4847 11.6329 52.3519 11.9668C52.2213 12.2949 52.0334 12.5423 51.7615 12.712C51.4859 12.8839 51.0965 12.9935 50.5345 12.9946C49.9721 12.9957 49.5817 12.8876 49.3054 12.7166C49.0329 12.5479 48.8441 12.3013 48.7122 11.9736C48.5782 11.6402 48.5061 11.2283 48.4687 10.7456C48.4314 10.2635 48.4297 9.73051 48.4286 9.15579Z" stroke="white" stroke-width="0.6"/>
</svg>
